<?xml version="1.0" encoding="utf-8"?>
<!-- Generator: Adobe Illustrator 25.0.0, SVG Export Plug-In . SVG Version: 6.00 Build 0)  -->
<svg version="1.1" id="Layer_1" xmlns="http://www.w3.org/2000/svg" xmlns:xlink="http://www.w3.org/1999/xlink" x="0px"
	y="0px" viewBox="0 0 1038 285.67" style="enable-background:new 0 0 1038 285.67;" xml:space="preserve">
	<style type="text/css">
		.st0 {
			fill: #FFFFFF;
		}

		.st1 {
			fill-rule: evenodd;
			clip-rule: evenodd;
			fill: #FFFFFF;
		}

		.st2 {
			fill: #282929;
		}

		.st3 {
			fill-rule: evenodd;
			clip-rule: evenodd;
			fill: #282929;
		}

		.st4 {
			fill: #FFFFFF;
			stroke: #ECECEC;
			stroke-miterlimit: 10;
		}

		.st5 {
			fill: #1E1E1C;
		}
	</style>
	<g>
		<path class="st0" d="M972.51,152.61v-1.94l-1.68-0.97l-69.59-40.18l-1.68-0.97l-1.68,0.97l-69.59,40.18l-1.68,0.97v1.94v40.18
		v40.18v1.94l1.68,0.97l69.59,40.18l1.68,0.97l1.68-0.97l69.59-40.18l1.68-0.97v-1.94l0-40.18V152.61z M833.32,192.79v-38.24
		l57.06-32.94l-16.93,29.32l-12.51,21.66l-27.62,47.85V192.79z M896.2,267.33l-61.65-35.59l61.65-106.78V267.33z M902.91,124.97
		l39.16,67.83l-39.16,67.83V124.97z M908.73,263.97l16.93-29.33l20.29-35.14l18.61,32.23L908.73,263.97z M965.79,192.79v27.65
		l-40.13-69.51l-16.93-29.32l57.06,32.94V192.79z" />
		<g>
			<path class="st0" d="M85.91,104.21c-3.12,0-5.63,0.86-7.51,2.59c-1.9,1.73-2.84,3.99-2.84,6.77c0,2.79,0.94,5.04,2.84,6.77
			c1.89,1.73,4.4,2.59,7.51,2.59c3.12,0,5.63-0.86,7.52-2.59c1.89-1.73,2.84-3.98,2.84-6.77c0-2.78-0.94-5.04-2.84-6.77
			C91.54,105.07,89.03,104.21,85.91,104.21z" />
			<path class="st0" d="M595.99,104.21c-3.12,0-5.63,0.86-7.51,2.59c-1.9,1.73-2.84,3.99-2.84,6.77c0,2.79,0.94,5.04,2.84,6.77
			c1.89,1.73,4.4,2.59,7.51,2.59c3.12,0,5.63-0.86,7.52-2.59c1.89-1.73,2.84-3.98,2.84-6.77c0-2.78-0.94-5.04-2.84-6.77
			C601.62,105.07,599.11,104.21,595.99,104.21z" />
			<g>
				<path class="st0" d="M42.71,215.56c-2.17-2.18-3.26-6.21-3.26-12.11v-49.79h23.73v-13.2H39.45v-22.89H24.08v22.89h-13.7v13.2
				h13.7v49.45c0,10.47,2.31,17.94,6.94,22.39c4.62,4.46,11.61,6.68,20.96,6.68h11.36v-13.36h-9.35
				C48.64,218.82,44.88,217.73,42.71,215.56z" />
				<rect x="78.23" y="140.46" class="st0" width="15.2" height="91.72" />
				<path class="st0" d="M189.01,163.85c-2.45-7.46-6.77-13.42-12.95-17.87s-13.73-6.68-22.64-6.68c-8.13,0-15.37,1.9-21.72,5.68
				c-6.35,3.79-11.34,9.25-14.95,16.37c-3.62,7.13-5.43,15.48-5.43,25.06c0,9.58,1.81,17.91,5.43,24.98
				c3.61,7.07,8.6,12.5,14.95,16.29c6.35,3.79,13.59,5.68,21.72,5.68c8.91,0,16.46-2.23,22.64-6.68s10.5-10.41,12.95-17.88v24.89
				c0,9.47-2.7,16.84-8.1,22.14c-5.4,5.29-12.23,7.93-20.47,7.93c-7.8,0-14.17-1.76-19.13-5.27c-4.96-3.51-8.33-8.33-10.11-14.45
				h-15.04c2.12,10.14,7.07,18.18,14.87,24.14c7.79,5.96,17.88,8.94,30.24,8.94c8.58,0,16.09-1.84,22.55-5.51
				c6.46-3.68,11.47-8.8,15.03-15.37c3.56-6.57,5.35-14.09,5.35-22.55v-93.22h-15.2V163.85z M185,204.03
				c-2.67,5.07-6.38,9-11.11,11.78c-4.74,2.79-10.11,4.18-16.12,4.18c-9.36,0-16.85-2.98-22.47-8.94
				c-5.63-5.96-8.44-14.17-8.44-24.64c0-10.47,2.81-18.68,8.44-24.64c5.62-5.95,13.11-8.94,22.47-8.94c6.01,0,11.39,1.36,16.12,4.09
				c4.73,2.73,8.43,6.66,11.11,11.78c2.67,5.12,4.01,11.03,4.01,17.71C189.01,193.09,187.67,198.96,185,204.03z" />
				<path class="st0" d="M290.93,144.97c-6.62-3.78-14.4-5.68-23.31-5.68c-8.8,0-16.6,1.9-23.39,5.68
				c-6.79,3.79-12.11,9.25-15.95,16.37c-3.84,7.13-5.76,15.48-5.76,25.06c0,9.58,1.92,17.91,5.76,24.98
				c3.84,7.07,9.16,12.5,15.95,16.29c6.79,3.79,14.59,5.68,23.39,5.68c7.69,0,14.59-1.39,20.71-4.18
				c6.13-2.78,11.11-6.68,14.96-11.7c3.84-5.01,6.32-10.69,7.44-17.04h-16.21c-1.12,6.23-4.15,11.22-9.11,14.95
				c-4.96,3.73-11.11,5.6-18.46,5.6c-8.13,0-15.01-2.62-20.63-7.85c-5.63-5.24-8.6-13.09-8.94-23.56h73.34
				c0.44-2.34,0.67-5.12,0.67-8.35c0-7.69-1.76-14.7-5.27-21.05C302.63,153.83,297.55,148.76,290.93,144.97z M237.39,182.23
				c0.44-10.02,3.51-17.63,9.19-22.8c5.68-5.18,12.7-7.77,21.05-7.77c5.24,0,10.08,1.11,14.54,3.34c4.45,2.23,7.96,5.63,10.53,10.19
				c2.56,4.57,3.67,10.25,3.34,17.04H237.39z" />
				<path class="st0" d="M344.91,159.01v-18.54h-15.2v91.72h15.2V183.9c0-10.13,2.73-17.4,8.19-21.8c5.45-4.4,12.47-6.6,21.05-6.6
				h4.68v-16.54c-8.02,0-14.93,1.76-20.72,5.26C352.32,147.73,347.92,152.66,344.91,159.01z" />
				<path class="st0" d="M444.09,185.99c-4.17-1.62-9.66-3.2-16.45-4.76c-5.34-1.22-9.55-2.37-12.61-3.43
				c-3.07-1.06-5.63-2.62-7.69-4.68c-2.06-2.06-3.09-4.76-3.09-8.1c0-4.45,1.53-7.99,4.59-10.61c3.07-2.62,7.32-3.93,12.78-3.93
				c6.46,0,11.61,1.76,15.45,5.26c3.84,3.51,6.1,7.99,6.77,13.45h14.54c-1.34-9.13-5.16-16.4-11.45-21.8
				c-6.29-5.4-14.62-8.1-24.98-8.1c-9.8,0-17.54,2.37-23.22,7.1c-5.68,4.73-8.52,10.94-8.52,18.63c0,5.79,1.42,10.39,4.26,13.78
				c2.84,3.4,6.29,5.88,10.36,7.43c4.06,1.56,9.5,3.12,16.29,4.68c5.46,1.23,9.74,2.4,12.86,3.51c3.11,1.11,5.73,2.73,7.85,4.85
				s3.17,4.96,3.17,8.52c0,4.35-1.48,7.86-4.42,10.53c-2.95,2.67-7.05,4.01-12.28,4.01c-7.02,0-12.67-1.73-16.96-5.18
				s-6.71-7.96-7.27-13.53h-14.7c1.22,9.35,5.29,16.65,12.19,21.88c6.91,5.24,15.82,7.86,26.73,7.86c9.35,0,16.84-2.34,22.47-7.02
				c5.62-4.68,8.44-10.74,8.44-18.21c0-6.02-1.48-10.8-4.43-14.37C451.83,190.19,448.27,187.6,444.09,185.99z" />
				<path class="st0" d="M550.2,144.97c-6.35-3.78-13.59-5.68-21.72-5.68c-8.91,0-16.46,2.26-22.64,6.77
				c-6.18,4.51-10.44,10.44-12.78,17.79v-23.39h-15.2v135.16h15.2v-66.83c2.34,7.35,6.6,13.28,12.78,17.79s13.72,6.77,22.64,6.77
				c8.13,0,15.37-1.89,21.72-5.68c6.35-3.79,11.33-9.22,14.95-16.29c3.62-7.07,5.43-15.4,5.43-24.98c0-9.58-1.81-17.93-5.43-25.06
				C561.53,154.22,556.55,148.76,550.2,144.97z M546.77,211.05c-5.63,5.96-13.17,8.94-22.64,8.94c-5.9,0-11.25-1.39-16.04-4.18
				c-4.79-2.78-8.52-6.71-11.19-11.78c-2.67-5.07-4.01-10.94-4.01-17.63c0-6.68,1.33-12.58,4.01-17.71
				c2.67-5.12,6.4-9.05,11.19-11.78c4.79-2.73,10.14-4.09,16.04-4.09c9.47,0,17.01,2.98,22.64,8.94c5.62,5.96,8.44,14.17,8.44,24.64
				C555.21,196.88,552.39,205.09,546.77,211.05z" />
				<rect x="588.31" y="140.46" class="st0" width="15.2" height="91.72" />
				<polygon class="st0" points="694.63,140.46 676.08,140.46 641.5,180.39 641.5,108.55 626.3,108.55 626.3,232.18 641.5,232.18 
				641.5,190.91 676.58,232.18 695.62,232.18 653.53,186.07 			" />
				<path class="st0" d="M765.49,144.97c-6.62-3.78-14.4-5.68-23.31-5.68c-8.8,0-16.6,1.9-23.39,5.68
				c-6.79,3.79-12.11,9.25-15.95,16.37c-3.84,7.13-5.76,15.48-5.76,25.06c0,9.58,1.92,17.91,5.76,24.98
				c3.84,7.07,9.16,12.5,15.95,16.29c6.79,3.79,14.59,5.68,23.39,5.68c7.69,0,14.59-1.39,20.72-4.18
				c6.13-2.78,11.11-6.68,14.96-11.7c3.84-5.01,6.32-10.69,7.44-17.04h-16.21c-1.12,6.23-4.15,11.22-9.11,14.95
				c-4.96,3.73-11.11,5.6-18.46,5.6c-8.13,0-15.01-2.62-20.63-7.85c-5.63-5.24-8.6-13.09-8.94-23.56h73.34
				c0.44-2.34,0.67-5.12,0.67-8.35c0-7.69-1.76-14.7-5.27-21.05C777.19,153.83,772.12,148.76,765.49,144.97z M711.95,182.23
				c0.45-10.02,3.51-17.63,9.19-22.8c5.68-5.18,12.7-7.77,21.05-7.77c5.24,0,10.08,1.11,14.54,3.34c4.45,2.23,7.96,5.63,10.53,10.19
				c2.56,4.57,3.67,10.25,3.34,17.04H711.95z" />
			</g>
		</g>
		<g>
			<path class="st1" d="M83.03,24.82c2.04,1.76,4.77,2.79,9.02,2.79c5.61,0,10.21-2.23,10.21-5.4c0-5.58-14.98-13.57-39.83-13.57
			c-35.06,0-54.97,15.25-54.97,33.94c0,17.86,17.19,34.69,55.48,34.69c24.68,0,37.96-8,37.96-11.99c0-1.86-2.56-3.07-5.45-3.07
			c-2.04,0-2.89,0.37-6.3,1.67c-2.73,1.02-9.87,3.82-20.6,3.82c-19.9,0-36.59-10.13-36.59-28.27c0-14.88,12.94-23.15,28.59-23.15
			C72.82,16.27,78.09,20.72,83.03,24.82" />
			<path class="st1" d="M217.01,41.18C215.66,23.7,197.1,8.55,163.24,8.55c-34.72,0-54.63,15.24-54.63,34.5
			c0,22.5,25.19,34.22,54.29,34.22C195.57,77.26,218.55,62.02,217.01,41.18 M193.02,41.37c0.16,6.42-1.19,13.58-6.64,18.97
			c-6.3,6.05-15.66,8.09-23.32,8.09c-6.64,0-24.16-1.85-29.1-17.01c-0.85-2.61-1.36-5.68-1.36-9.4c0-5.02,0.68-18.22,17.36-23.62
			c3.74-1.21,8.34-1.86,12.77-1.86c3.4,0,14.29,0.19,22.63,7.26C191.83,29.47,192.85,36.44,193.02,41.37" />
			<path class="st1"
				d="M253.95,11.8c-1.87-1.48-2.55-1.67-5.44-1.67h-12.94c-2.38,0-3.74,0.19-3.74,1.95v61.84
			c0,1.67,1.02,1.87,3.74,1.87h10.73c2.89,0,3.4-0.56,3.4-2.05v-45l58.54,45.1c1.88,1.49,2.39,1.76,4.43,1.96h9.53
			c2.55,0,3.57-0.28,3.57-1.87V11.98c0-1.48-0.68-1.95-3.41-1.86h-10.72c-2.73,0-3.41,0.46-3.41,1.86v41.39L253.95,11.8z" />
			<path class="st1" d="M417.22,24.82c2.04,1.76,4.76,2.79,9.01,2.79c5.62,0,10.22-2.23,10.22-5.4c0-5.58-14.98-13.57-39.84-13.57
			c-35.05,0-54.94,15.25-54.94,33.94c0,17.86,17.17,34.69,55.46,34.69c24.67,0,37.95-8,37.95-11.99c0-1.86-2.55-3.07-5.45-3.07
			c-2.03,0-2.89,0.37-6.29,1.67c-2.72,1.02-9.87,3.82-20.6,3.82c-19.91,0-36.59-10.13-36.59-28.27c0-14.88,12.93-23.15,28.59-23.15
			C407,16.27,412.28,20.72,417.22,24.82" />
			<path class="st1"
				d="M512.14,45.74c2.73,0,3.76-0.18,3.76-1.86v-4.56c0-1.59-1.02-1.77-3.58-1.77h-34.04V18.4h40.33
			c2.89,0,4.09-0.19,3.92-2.05V11.8c0.17-1.77-1.53-1.77-3.92-1.77H459.4c-3.07,0.09-4.09,0.56-4.09,2.6v61.01
			c0,1.95,1.18,2.14,4.09,2.14h59.22c2.89,0,3.57-0.27,3.92-1.21v-5.4c0-1.76-1.36-1.86-3.92-1.86h-40.33V45.74H512.14z" />
			<path class="st1" d="M564.09,11.8c-1.87-1.48-2.55-1.67-5.45-1.67h-12.93c-2.37,0-3.74,0.19-3.74,1.95v61.84
			c0,1.67,1.01,1.87,3.74,1.87h10.72c2.89,0,3.41-0.56,3.41-2.05v-45l58.54,45.1c1.87,1.49,2.38,1.76,4.42,1.96h9.53
			c2.56,0,3.58-0.28,3.58-1.87V11.98c0-1.48-0.68-1.95-3.41-1.86h-10.72c-2.72,0-3.4,0.46-3.4,1.86v41.39L564.09,11.8z" />
			<path class="st1" d="M729.21,18.41c3.07,0,3.75-0.56,3.75-2.05V11.8c0-1.59-1.36-1.78-3.75-1.78H654.5
			c-2.55,0-3.75,0.29-3.75,1.96v4.37c0,1.48,0.7,2.05,3.75,2.05h25.7v55.15c0,1.85,1.02,2.13,4.09,2.23h15.49
			c2.89,0,3.57-0.65,3.57-2.23V18.41H729.21z" />
			<path class="st1" d="M747.62,73.83c0,1.76,1.36,1.95,3.73,1.95h14.81c3.24,0,3.92-0.56,3.92-2.23V50.11c0-0.83,0-2.41,3.58-2.41
			c3.4,0,5.27,1.58,6.13,2.41l25.52,23.81c1.71,1.59,2.05,1.78,5.62,1.87h17.19c1.19,0,3.4,0,3.4-1.3c0-0.56-0.67-1.21-1.35-1.77
			l-31.84-27.34c11.92-2.05,26.55-7.34,26.55-17.57c0-5.21-3.57-10.32-11.05-13.68c-10.23-4.47-25.2-4.74-35.23-4.74
			c-11.06,0-24.34,0.65-28.09,1.39c-2.38,0.46-2.89,0.93-2.89,3.08V73.83z M770.08,16.91c1.72-0.08,4.08-0.28,7.67-0.28
			c6.63,0,24.16,0,24.16,12.56c0,8.65-10.55,11.99-20.76,12.66c-2.73,0.17-4.76,0.17-11.07,0.08V16.91z" />
			<path class="st1" d="M869.03,12.07c0-1.67-1.02-1.95-3.58-1.95h-16.16c-3.06,0-3.42,0.65-3.58,1.95v61.67
			c0,1.67,1.36,1.94,3.74,2.04h15.83c2.21,0,3.75-0.28,3.75-2.04V12.07z" />
			<path class="st1" d="M949.83,73.92c1.87,1.67,2.38,1.86,5.45,1.86h16.34c1.19,0,3.23,0,3.23-1.3c0-0.46-0.51-0.92-1.03-1.58
			l-33.53-33.1l28.6-26.87c0.5-0.56,1.01-1.02,1.01-1.58c0-1.21-2.04-1.21-3.07-1.21h-11.73c-3.07,0-3.41,0.09-5.28,1.77
			l-19.24,18.13l-18.7-18.13c-1.71-1.58-2.39-1.77-5.79-1.77h-15.32c-1.02,0-0.63,0-0.63,1.3c0,0.37,0.35,0.75,0.85,1.29l26.49,29.4
			l-30.25,30.78c-1.18,1.02-1.53,1.4-1.53,1.77c0,1.11,2.22,1.11,3.42,1.11h9.13c2.89,0,3.23-0.28,4.93-1.86l23.66-21.95
			L949.83,73.92z" />
		</g>
		<g>
			<polygon class="st0" points="1025.46,10.13 1017.95,27.15 1010.94,10.13 1005.43,10.13 1005.43,32.1 1009.19,32.1 1009.19,15.51 
			1016.33,32.1 1019.39,32.1 1026.47,16.07 1026.59,32.1 1030.53,32.1 1030.53,10.13 		" />
			<polygon class="st0" points="985.84,13.76 992.04,13.76 992.04,32.1 996.23,32.1 996.23,13.76 1002.37,13.76 1002.37,10.13 
			985.84,10.13 		" />
		</g>
	</g>
</svg>